<svg xmlns="http://www.w3.org/2000/svg" width="218.318" height="227" viewBox="0 0 218.318 227">
  <g id="Gruppe_13" data-name="Gruppe 13" transform="translate(-93.617 -214.582)">
    <g id="Gruppe_13-2" data-name="Gruppe 13" transform="translate(93.617 214.582)">
      <path id="Pfad_18" data-name="Pfad 18" d="M123.551,347.5c2.34,7.369,4.562,14.486,6.9,21.565a6.644,6.644,0,0,0,1.8,2.208q9.256,9.314,18.546,18.592c1.507,1.506,2.369,3.409,1.031,5.139a7.77,7.77,0,0,1-4.232,2.329c-.8.186-2.081-.764-2.839-1.512Q134.56,385.775,124.5,375.592a7.707,7.707,0,0,1-1.562-2.378,122.8,122.8,0,0,1-8.237-29.145c-.727-4.7.034-9.621-.227-14.422a176.349,176.349,0,0,0-1.656-18.224c-.662-4.151-2.606-7.962-7.112-10.148-.53,4.5-1.049,8.775-1.534,13.056-.6,5.3-1.5,10.588-1.664,15.9a141.494,141.494,0,0,0,.7,15.9c.855,10.456,2.028,20.888,2.755,31.352a9.046,9.046,0,0,0,2.752,6.466c5.018,4.757,10.18,9.375,15,14.323,7.136,7.32,14.327,14.624,20.933,22.411a31.392,31.392,0,0,1,7.753,23.545c-.413,5.044-.067,10.149-.077,15.227-.006,3.4-1.425,5.186-4.126,5.227-2.806.043-4.263-1.773-4.268-5.345-.007-5.428-.2-10.865.052-16.281a24.772,24.772,0,0,0-4.743-15.476c-5.957-8.769-13.726-15.857-21.313-23.118-5.058-4.841-10.179-9.617-15.139-14.556a17.4,17.4,0,0,1-5.379-11.8c-.921-13.864-2.684-27.671-3.716-41.53-.333-4.477.455-9.058.932-13.57.936-8.865,1.987-17.718,3.047-26.569.394-3.288,2.278-4.651,5.592-4.347,7.64.7,12.777,4.882,15.854,11.661,4.162,9.168,4.677,18.9,4.036,28.776-.123,1.907-.209,3.818-.319,5.851,2.656.417,5.129.777,7.591,1.2a19.337,19.337,0,0,1,13.06,8.447c3.385,4.887,6.668,9.847,10.136,14.673a16.272,16.272,0,0,0,3.75,3.573c7.814,5.6,15.887,10.863,23.484,16.744A73.007,73.007,0,0,1,197.95,401.4c1.894,2.972,3.3,6.256,4.962,9.467,3.671-11.063,11.558-19.21,20.239-26.528a179.319,179.319,0,0,1,19.746-14.28,43.494,43.494,0,0,0,14.393-14.9c.714-1.2,1.563-2.326,2.238-3.548,4.642-8.409,11.845-12.555,21.35-12.912.435-.016.869-.08,1.3-.136.07-.009.129-.1.468-.366-.081-1.686-.142-3.588-.27-5.486-.671-9.96-.171-19.78,4.059-29.023,3.051-6.666,8.112-10.82,15.635-11.581,3.474-.352,5.385.979,5.788,4.413,1.406,11.978,3.026,23.942,3.981,35.958.4,5.077-.586,10.275-1.044,15.41-.933,10.45-2.068,20.884-2.83,31.345-.244,3.342-1.148,6.232-3.407,8.539-5.2,5.31-10.628,10.4-15.836,15.7-6.8,6.924-13.686,13.781-20.136,21.023-5.025,5.642-7.726,12.321-7.07,20.215.419,5.042.095,10.148.072,15.226-.014,3.119-1.569,4.8-4.3,4.736-2.6-.058-4.072-1.7-4.081-4.7-.02-7.091-.057-14.183.012-21.274.052-5.353,2.352-9.982,5.1-14.387,6.231-9.993,14.843-17.866,23.266-25.9q7.786-7.431,15.525-14.912c1.728-1.66,2.274-3.637,2.449-6.072.729-10.2,1.4-20.431,2.773-30.557a104.178,104.178,0,0,0-.434-27.907c-.766-5.788-1.347-11.6-2.034-17.6-3.044,1.206-4.615,3.559-5.82,6.207a40.944,40.944,0,0,0-3.135,20.8c1.372,15.442-2.524,29.8-7.938,43.927A11.049,11.049,0,0,1,280.6,376c-6.5,6.62-13.082,13.161-19.655,19.711-2.384,2.376-5.238,2.351-6.981,0-1.342-1.813-1.117-3.9.83-5.868,6.031-6.1,12.148-12.116,18.136-18.258a11.884,11.884,0,0,0,2.809-4.288c2.15-6.438,4.061-12.956,6.18-19.833-5.052-.069-9.271.714-12.124,4.553-3.178,4.276-6.072,8.764-9.044,13.191a34.913,34.913,0,0,1-9.606,9.495c-9.529,6.484-19.636,12.265-27.583,20.82-3.383,3.642-6.531,7.522-9.543,11.48a13.4,13.4,0,0,0-2.788,10.127c1.227,8.9,2.812,17.761,3.73,26.692a140.181,140.181,0,0,1,.289,17.558c-.05,2.173-1.854,3.276-4.054,3.291a3.906,3.906,0,0,1-4.166-3.239,5.193,5.193,0,0,1-.055-1.57c.627-9.341-.816-18.46-2.8-27.543-.608-2.787-.8-5.663-1.582-8.541-.469,3.183-.744,6.41-1.444,9.541a100.293,100.293,0,0,0-2.636,27.04,3.954,3.954,0,0,1-4.194,4.332c-2.463-.017-4.016-1.707-4.171-4.4-.581-10.115.8-20.012,2.774-29.914a62.143,62.143,0,0,0,1.224-15.638c-.187-3.173-1.87-6.561-3.726-9.274a80.526,80.526,0,0,0-19.81-19.712c-5.4-3.879-10.856-7.686-16.467-11.241a31.334,31.334,0,0,1-9.553-9.548c-2.441-3.731-4.961-7.412-7.393-11.15C134.136,349.1,129.725,347.258,123.551,347.5Z" transform="translate(-93.617 -237.686)" fill="#dfd6cb"/>
      <path id="Pfad_19" data-name="Pfad 19" d="M214.95,247.02c3.31-4.918,6.288-9.953,9.863-14.519,6.156-7.862,13.742-14.016,23.578-16.7,18.125-4.951,37.376,5.628,43.961,24.088,4.945,13.864,2.832,27.173-3.446,40.1-7.541,15.523-18.624,28.292-31.2,39.859a212.132,212.132,0,0,1-38.886,28,6.573,6.573,0,0,1-7.3-.029c-23.031-13.165-43.522-29.308-59.558-50.658-7.351-9.787-13.438-20.3-15.752-32.5-2.5-13.151-.373-25.53,8.2-36.126,13.908-17.187,37.34-18.552,54.112-3.459a71.045,71.045,0,0,1,15.252,19.884C214.166,245.695,214.6,246.411,214.95,247.02Zm-71.284,9.521c.229,1.746.419,4.1.865,6.414a62.073,62.073,0,0,0,9.541,22.246c15.211,23.213,36.085,40.2,59.82,53.974a3.932,3.932,0,0,0,3.243-.318,193.248,193.248,0,0,0,37.6-27.95c10.3-9.844,19.457-20.605,25.943-33.408,5.515-10.885,7.952-22.165,3.829-34.144-5.069-14.727-20.188-23.265-34.2-19.213-7.872,2.276-13.74,7.47-18.812,13.651a71.428,71.428,0,0,0-12.061,21.935c-.748,2.133-2.039,3.477-4.373,3.432-2.216-.042-3.5-1.357-4.117-3.407-.152-.5-.351-.986-.538-1.474-3.992-10.434-9.52-19.881-18.1-27.226-9.455-8.092-19.982-10.692-31.519-4.861C148.682,232.306,144.232,243.045,143.666,256.541Z" transform="translate(-106.028 -214.582)" fill="#dfd6cb"/>
    </g>
  </g>
</svg>
